<svg xmlns="http://www.w3.org/2000/svg" width="201.306" height="201.306" viewBox="0 0 53.262 53.262"><defs/><defs><filter id="a" width="1" height="1" x="0" y="0" color-interpolation-filters="sRGB"><feGaussianBlur stdDeviation=".001"/></filter></defs><g filter="url(#a)" transform="translate(-83.268 -88.522)"><rect width="210" height="297" fill="#e6e6e6" ry="0"/></g><g transform="translate(-83.268 -88.522)"><rect width="38.219" height="38.219" x="-22.825" y="140.027" fill="none" stroke="#000" stroke-linecap="round" stroke-width="2.03" paint-order="stroke markers fill" ry="3.389" transform="rotate(-45)"/><path stroke-width=".807" style="font-variant-caps:normal;font-variant-east-asian:normal;font-variant-ligatures:normal;font-variant-numeric:normal" d="M104.925 117.43l.162 8.592q0 .71-.388 1.195-.388.452-.937.452t-.936-.452q-.388-.485-.388-.97 0-.516.065-2.066.129-4.587.129-7.978 0-3.424-.033-5.33-.032-1.938-.096-3.036-.033-1.13-.033-1.357-.387.065-.517.065-.969 0-.969-1.066 0-1.324 2.552-2.067 2.552-.775 4.554-.775 4.425 0 6.686 2.1 2.261 2.066 2.261 5.103 0 2.067-1.324 3.972-1.292 1.874-3.553 2.81 3.036 7.203 5.071 8.334.582.323.905.258.678-.097.678.388 0 .904-.582 1.486-.581.581-1.324.581-1.227 0-2.584-1.809-1.938-2.778-4.49-8.495-1.55.291-3.068.291zm9.722-7.397q0-2.293-1.647-3.714-1.647-1.454-4.36-1.454-2.681 0-3.683.582-.097 1.68-.097 5.2 0 3.52.033 4.264 1.453-.388 2.971-.388t2.778.323q1.454-.29 2.713-1.68 1.292-1.42 1.292-3.133z" aria-label="R"/></g></svg>